<svg xmlns="http://www.w3.org/2000/svg" viewBox="0 0 50 46.61"><defs><style>.cls-1{fill:#fff;}</style></defs><g id="Слой_2" data-name="Слой 2"><g id="Layer_1" data-name="Layer 1"><path class="cls-1" d="M25,22.82C19.6,23,18.34,28,13.46,32.57,6.31,39.29,7.66,45.13,12,46.35s8.11-3.7,12.86-3.6H25c4.75-.08,8.47,4.87,12.85,3.67s5.76-7-1.36-13.79C31.61,28,30.38,23,25,22.82Z"/><ellipse class="cls-1" cx="7.2" cy="22.26" rx="5.91" ry="9.17" transform="translate(-11.68 8.45) rotate(-35.88)"/><ellipse class="cls-1" cx="42.78" cy="22.35" rx="9.17" ry="5.91" transform="translate(-0.52 43.69) rotate(-53.82)"/><ellipse class="cls-1" cx="17.49" cy="9.59" rx="6.24" ry="9.68" transform="translate(-1.39 3.16) rotate(-9.95)"/><ellipse class="cls-1" cx="32.56" cy="9.63" rx="9.68" ry="6.24" transform="translate(17.29 39.96) rotate(-79.75)"/></g></g></svg>